<?xml version="1.0" encoding="UTF-8"?>
<svg width="1288px" height="669px" viewBox="0 0 1288 669" version="1.1" xmlns="http://www.w3.org/2000/svg" xmlns:xlink="http://www.w3.org/1999/xlink">
    <!-- Generator: Sketch 47.1 (45422) - http://www.bohemiancoding.com/sketch -->
    <title>Group</title>
    <desc>Created with Sketch.</desc>
    <defs></defs>
    <g id="Page-1" stroke="none" stroke-width="1" fill="none" fill-rule="evenodd">
        <g id="Desktop-HD-Copy-3" transform="translate(-75.000000, -167.000000)" fill="#FFFFFF">
            <g id="Group" transform="translate(75.000000, 167.000000)">
                <polygon id="Path" points="455.6845 13.72 446.0815 13.72 446.0815 69.853 445.8835 69.853 410.3425 13.72 399.4525 13.72 399.4525 85 409.0555 85 409.0555 28.273 409.5505 28.273 445.3885 85 455.6845 85"></polygon>
                <path d="M474.3185,36.828 C474.3185,15.147 488.0795,0 507.8795,0 C527.5805,0 541.3415,15.147 541.3415,36.828 C541.3415,58.509 527.5805,73.854 507.8795,73.854 C488.0795,73.854 474.3185,58.509 474.3185,36.828 Z M484.5155,36.828 C484.5155,53.163 493.8215,65.637 507.8795,65.637 C522.0365,65.637 531.1445,53.163 531.1445,36.828 C531.1445,20.691 522.0365,8.217 507.8795,8.217 C493.8215,8.217 484.5155,20.691 484.5155,36.828 Z M642.8285,1.287 C665.5985,1.287 681.1415,12.969 681.1415,37.719 C681.1415,62.865 665.5985,72.567 642.8285,72.567 L624.6125,72.567 L624.6125,1.287 L642.8285,1.287 Z M642.8285,64.35 C657.6785,64.35 670.9445,59.499 670.9445,37.719 C670.9445,15.939 657.6785,9.504 642.8285,9.504 L634.8095,9.504 L634.8095,64.35 L642.8285,64.35 Z M812.1595,72.567 L805.3285,54.549 L773.6485,54.549 L767.0155,72.567 L756.6205,72.567 L784.0435,1.287 L795.3295,1.287 L822.7525,72.567 L812.1595,72.567 Z M776.5195,46.728 L802.5565,46.728 L789.5875,11.385 L789.3895,11.385 L776.5195,46.728 Z M229.89,120.287 C252.66,120.287 268.203,131.969 268.203,156.719 C268.203,181.865 252.66,191.567 229.89,191.567 L211.674,191.567 L211.674,120.287 L229.89,120.287 Z M229.89,183.35 C244.74,183.35 258.006,178.499 258.006,156.719 C258.006,134.939 244.74,128.504 229.89,128.504 L221.871,128.504 L221.871,183.35 L229.89,183.35 Z M315.071,155.828 C315.071,134.147 328.832,119 348.632,119 C368.333,119 382.094,134.147 382.094,155.828 C382.094,177.509 368.333,192.854 348.632,192.854 C328.832,192.854 315.071,177.509 315.071,155.828 Z M325.268,155.828 C325.268,172.163 334.574,184.637 348.632,184.637 C362.789,184.637 371.897,172.163 371.897,155.828 C371.897,139.691 362.789,127.217 348.632,127.217 C334.574,127.217 325.268,139.691 325.268,155.828 Z M549.94,191.567 L543.109,173.549 L511.429,173.549 L504.796,191.567 L494.401,191.567 L521.824,120.287 L533.11,120.287 L560.533,191.567 L549.94,191.567 Z M514.3,165.728 L540.337,165.728 L527.368,130.385 L527.17,130.385 L514.3,165.728 Z M618.221,191.567 C615.647,187.013 614.954,180.578 614.558,174.539 C613.865,162.956 610.202,160.778 599.906,160.778 L587.036,160.778 L587.036,191.567 L576.839,191.567 L576.839,120.287 L601.886,120.287 C617.726,120.287 626.933,127.316 626.933,139.691 C626.933,148.304 620.003,154.838 612.677,157.016 L612.677,157.214 C621.092,158.006 623.765,161.174 624.458,172.163 C624.854,178.202 625.844,185.429 628.913,191.567 L618.221,191.567 Z M601.985,152.561 C609.014,152.561 616.736,149.393 616.736,139.691 C616.736,131.078 609.509,128.504 602.183,128.504 L587.036,128.504 L587.036,152.561 L601.985,152.561 Z M986.426,120.287 C1004.642,120.287 1012.859,130.88 1012.859,142.067 C1012.859,153.254 1004.642,163.847 986.426,163.847 L973.853,163.847 L973.853,191.567 L963.656,191.567 L963.656,120.287 L986.426,120.287 Z M987.614,155.63 C998.999,155.63 1002.662,148.997 1002.662,142.067 C1002.662,134.939 998.999,128.504 987.614,128.504 L973.853,128.504 L973.853,155.63 L987.614,155.63 Z M1075.002,191.567 L1068.171,173.549 L1036.491,173.549 L1029.858,191.567 L1019.463,191.567 L1046.886,120.287 L1058.172,120.287 L1085.595,191.567 L1075.002,191.567 Z M1039.362,165.728 L1065.399,165.728 L1052.43,130.385 L1052.232,130.385 L1039.362,165.728 Z M1143.283,191.567 C1140.709,187.013 1140.016,180.578 1139.62,174.539 C1138.927,162.956 1135.264,160.778 1124.968,160.778 L1112.098,160.778 L1112.098,191.567 L1101.901,191.567 L1101.901,120.287 L1126.948,120.287 C1142.788,120.287 1151.995,127.316 1151.995,139.691 C1151.995,148.304 1145.065,154.838 1137.739,157.016 L1137.739,157.214 C1146.154,158.006 1148.827,161.174 1149.52,172.163 C1149.916,178.202 1150.906,185.429 1153.975,191.567 L1143.283,191.567 Z M1127.047,152.561 C1134.076,152.561 1141.798,149.393 1141.798,139.691 C1141.798,131.078 1134.571,128.504 1127.245,128.504 L1112.098,128.504 L1112.098,152.561 L1127.047,152.561 Z M177.8595,274.828 C177.8595,253.147 191.6205,238 211.4205,238 C231.1215,238 244.8825,253.147 244.8825,274.828 C244.8825,296.509 231.1215,311.854 211.4205,311.854 C191.6205,311.854 177.8595,296.509 177.8595,274.828 Z M188.0565,274.828 C188.0565,291.163 197.3625,303.637 211.4205,303.637 C225.5775,303.637 234.6855,291.163 234.6855,274.828 C234.6855,258.691 225.5775,246.217 211.4205,246.217 C197.3625,246.217 188.0565,258.691 188.0565,274.828 Z M515.7295,239.287 C531.5695,239.287 540.0835,246.811 540.0835,258.394 C540.0835,265.72 534.9355,272.353 527.9065,274.333 L527.9065,274.531 C536.3215,275.917 542.7565,281.659 542.7565,290.47 C542.7565,303.835 531.8665,310.567 517.3135,310.567 L492.0685,310.567 L492.0685,239.287 L515.7295,239.287 Z M516.2245,270.571 C524.5405,270.571 530.2825,266.611 530.2825,258.691 C530.2825,250.375 524.1445,247.504 515.9275,247.504 L502.1665,247.504 L502.1665,270.571 L516.2245,270.571 Z M517.1155,302.35 C524.9365,302.35 532.6585,300.37 532.6585,290.371 C532.6585,281.956 526.7185,278.689 517.4125,278.689 L502.1665,278.689 L502.1665,302.35 L517.1155,302.35 Z M665.1615,310.567 C662.5875,306.013 661.8945,299.578 661.4985,293.539 C660.8055,281.956 657.1425,279.778 646.8465,279.778 L633.9765,279.778 L633.9765,310.567 L623.7795,310.567 L623.7795,239.287 L648.8265,239.287 C664.6665,239.287 673.8735,246.316 673.8735,258.691 C673.8735,267.304 666.9435,273.838 659.6175,276.016 L659.6175,276.214 C668.0325,277.006 670.7055,280.174 671.3985,291.163 C671.7945,297.202 672.7845,304.429 675.8535,310.567 L665.1615,310.567 Z M648.9255,271.561 C655.9545,271.561 663.6765,268.393 663.6765,258.691 C663.6765,250.078 656.4495,247.504 649.1235,247.504 L633.9765,247.504 L633.9765,271.561 L648.9255,271.561 Z M1012.4485,261.166 C1011.2605,254.83 1008.8845,248.098 1001.3605,248.098 C991.1635,248.098 986.1145,259.582 985.6195,274.036 L985.8175,274.036 C987.7975,269.878 993.4405,264.334 1001.0635,264.334 C1012.6465,264.334 1022.2495,273.343 1022.2495,287.203 C1022.2495,301.558 1012.4485,311.854 1000.6675,311.854 C983.8375,311.854 976.5115,297.796 976.5115,277.501 C976.5115,257.107 985.2235,240.475 1000.9645,240.475 C1013.2405,240.475 1019.8735,248.494 1021.4575,261.166 L1012.4485,261.166 Z M986.8075,287.896 C986.8075,296.41 991.5595,304.132 999.6775,304.132 C1008.2905,304.132 1012.9435,296.707 1012.9435,288.193 C1012.9435,278.887 1008.2905,272.155 999.6775,272.155 C991.5595,272.155 986.8075,279.382 986.8075,287.896 Z M1041.8225,260.572 L1041.8225,273.046 L1053.8015,273.046 L1053.8015,260.572 L1041.8225,260.572 Z M1041.8225,298.093 L1041.8225,310.567 L1053.8015,310.567 L1053.8015,298.093 L1041.8225,298.093 Z M1096.6395,311.854 C1079.8095,311.854 1072.4835,295.123 1072.4835,275.818 C1072.4835,257.206 1079.8095,240.475 1096.6395,240.475 C1113.5685,240.475 1120.7955,257.008 1120.7955,275.719 C1120.7955,295.321 1113.5685,311.854 1096.6395,311.854 Z M1096.6395,303.835 C1107.7275,303.835 1111.4895,289.678 1111.4895,275.719 C1111.4895,261.364 1107.4305,248.494 1096.6395,248.494 C1085.8485,248.494 1081.7895,261.661 1081.7895,275.719 C1081.7895,289.678 1085.2545,303.835 1096.6395,303.835 Z M1160.3665,311.854 C1143.5365,311.854 1136.2105,295.123 1136.2105,275.818 C1136.2105,257.206 1143.5365,240.475 1160.3665,240.475 C1177.2955,240.475 1184.5225,257.008 1184.5225,275.719 C1184.5225,295.321 1177.2955,311.854 1160.3665,311.854 Z M1160.3665,303.835 C1171.4545,303.835 1175.2165,289.678 1175.2165,275.719 C1175.2165,261.364 1171.1575,248.494 1160.3665,248.494 C1149.5755,248.494 1145.5165,261.661 1145.5165,275.719 C1145.5165,289.678 1148.9815,303.835 1160.3665,303.835 Z M341.5185,393.828 C341.5185,372.147 355.2795,357 375.0795,357 C394.7805,357 408.5415,372.147 408.5415,393.828 C408.5415,415.509 394.7805,430.854 375.0795,430.854 C355.2795,430.854 341.5185,415.509 341.5185,393.828 Z M351.7155,393.828 C351.7155,410.163 361.0215,422.637 375.0795,422.637 C389.2365,422.637 398.3445,410.163 398.3445,393.828 C398.3445,377.691 389.2365,365.217 375.0795,365.217 C361.0215,365.217 351.7155,377.691 351.7155,393.828 Z M544.5095,429.567 C541.9355,425.013 541.2425,418.578 540.8465,412.539 C540.1535,400.956 536.4905,398.778 526.1945,398.778 L513.3245,398.778 L513.3245,429.567 L503.1275,429.567 L503.1275,358.287 L528.1745,358.287 C544.0145,358.287 553.2215,365.316 553.2215,377.691 C553.2215,386.304 546.2915,392.838 538.9655,395.016 L538.9655,395.214 C547.3805,396.006 550.0535,399.174 550.7465,410.163 C551.1425,416.202 552.1325,423.429 555.2015,429.567 L544.5095,429.567 Z M528.2735,390.561 C535.3025,390.561 543.0245,387.393 543.0245,377.691 C543.0245,369.078 535.7975,366.504 528.4715,366.504 L513.3245,366.504 L513.3245,390.561 L528.2735,390.561 Z M844.4335,429.567 C841.8595,425.013 841.1665,418.578 840.7705,412.539 C840.0775,400.956 836.4145,398.778 826.1185,398.778 L813.2485,398.778 L813.2485,429.567 L803.0515,429.567 L803.0515,358.287 L828.0985,358.287 C843.9385,358.287 853.1455,365.316 853.1455,377.691 C853.1455,386.304 846.2155,392.838 838.8895,395.016 L838.8895,395.214 C847.3045,396.006 849.9775,399.174 850.6705,410.163 C851.0665,416.202 852.0565,423.429 855.1255,429.567 L844.4335,429.567 Z M828.1975,390.561 C835.2265,390.561 842.9485,387.393 842.9485,377.691 C842.9485,369.078 835.7215,366.504 828.3955,366.504 L813.2485,366.504 L813.2485,390.561 L828.1975,390.561 Z M361.9125,596.287 C377.7525,596.287 386.2665,603.811 386.2665,615.394 C386.2665,622.72 381.1185,629.353 374.0895,631.333 L374.0895,631.531 C382.5045,632.917 388.9395,638.659 388.9395,647.47 C388.9395,660.835 378.0495,667.567 363.4965,667.567 L338.2515,667.567 L338.2515,596.287 L361.9125,596.287 Z M362.4075,627.571 C370.7235,627.571 376.4655,623.611 376.4655,615.691 C376.4655,607.375 370.3275,604.504 362.1105,604.504 L348.3495,604.504 L348.3495,627.571 L362.4075,627.571 Z M363.2985,659.35 C371.1195,659.35 378.8415,657.37 378.8415,647.371 C378.8415,638.956 372.9015,635.689 363.5955,635.689 L348.3495,635.689 L348.3495,659.35 L363.2985,659.35 Z M448.6075,667.567 C446.0335,663.013 445.3405,656.578 444.9445,650.539 C444.2515,638.956 440.5885,636.778 430.2925,636.778 L417.4225,636.778 L417.4225,667.567 L407.2255,667.567 L407.2255,596.287 L432.2725,596.287 C448.1125,596.287 457.3195,603.316 457.3195,615.691 C457.3195,624.304 450.3895,630.838 443.0635,633.016 L443.0635,633.214 C451.4785,634.006 454.1515,637.174 454.8445,648.163 C455.2405,654.202 456.2305,661.429 459.2995,667.567 L448.6075,667.567 Z M432.3715,628.561 C439.4005,628.561 447.1225,625.393 447.1225,615.691 C447.1225,607.078 439.8955,604.504 432.5695,604.504 L417.4225,604.504 L417.4225,628.561 L432.3715,628.561 Z M724.4745,596.287 C740.3145,596.287 748.8285,603.811 748.8285,615.394 C748.8285,622.72 743.6805,629.353 736.6515,631.333 L736.6515,631.531 C745.0665,632.917 751.5015,638.659 751.5015,647.47 C751.5015,660.835 740.6115,667.567 726.0585,667.567 L700.8135,667.567 L700.8135,596.287 L724.4745,596.287 Z M724.9695,627.571 C733.2855,627.571 739.0275,623.611 739.0275,615.691 C739.0275,607.375 732.8895,604.504 724.6725,604.504 L710.9115,604.504 L710.9115,627.571 L724.9695,627.571 Z M725.8605,659.35 C733.6815,659.35 741.4035,657.37 741.4035,647.371 C741.4035,638.956 735.4635,635.689 726.1575,635.689 L710.9115,635.689 L710.9115,659.35 L725.8605,659.35 Z M936.6435,667.567 C934.0695,663.013 933.3765,656.578 932.9805,650.539 C932.2875,638.956 928.6245,636.778 918.3285,636.778 L905.4585,636.778 L905.4585,667.567 L895.2615,667.567 L895.2615,596.287 L920.3085,596.287 C936.1485,596.287 945.3555,603.316 945.3555,615.691 C945.3555,624.304 938.4255,630.838 931.0995,633.016 L931.0995,633.214 C939.5145,634.006 942.1875,637.174 942.8805,648.163 C943.2765,654.202 944.2665,661.429 947.3355,667.567 L936.6435,667.567 Z M920.4075,628.561 C927.4365,628.561 935.1585,625.393 935.1585,615.691 C935.1585,607.078 927.9315,604.504 920.6055,604.504 L905.4585,604.504 L905.4585,628.561 L920.4075,628.561 Z" id="NO-IDEAS-STUDIOWARMI"></path>
                <polygon id="Path" points="592.7635 1.287 592.7635 72.567 602.9605 72.567 602.9605 1.287"></polygon>
                <polygon id="Path" points="739.6215 31.779 709.7235 31.779 709.7235 9.504 744.4725 9.504 744.4725 1.287 699.5265 1.287 699.5265 72.567 745.4625 72.567 745.4625 64.152 709.7235 64.152 709.7235 39.996 739.6215 39.996"></polygon>
                <path d="M863.0165,65.637 C853.1165,65.637 847.6715,59.697 845.6915,50.688 L835.8905,52.272 C837.8705,65.34 848.0675,73.854 862.1255,73.854 C878.0645,73.854 887.9645,64.647 887.9645,53.361 C887.9645,41.184 880.3415,35.739 864.9965,31.977 C854.4035,29.304 848.4635,26.829 848.4635,19.305 C848.4635,12.87 853.6115,8.217 862.3235,8.217 C871.5305,8.217 876.1835,13.365 877.6685,20.196 L887.0735,18.612 C884.4005,7.425 876.1835,0 862.3235,0 C848.2655,0 838.2665,9.009 838.2665,19.503 C838.2665,32.274 847.9685,37.818 861.3335,41.085 C872.4215,43.758 877.8665,46.629 877.8665,54.054 C877.8665,59.796 873.4115,65.637 863.0165,65.637 Z" id="Path"></path>
                <path d="M27.126,184.637 C17.226,184.637 11.781,178.697 9.801,169.688 L0,171.272 C1.98,184.34 12.177,192.854 26.235,192.854 C42.174,192.854 52.074,183.647 52.074,172.361 C52.074,160.184 44.451,154.739 29.106,150.977 C18.513,148.304 12.573,145.829 12.573,138.305 C12.573,131.87 17.721,127.217 26.433,127.217 C35.64,127.217 40.293,132.365 41.778,139.196 L51.183,137.612 C48.51,126.425 40.293,119 26.433,119 C12.375,119 2.376,128.009 2.376,138.503 C2.376,151.274 12.078,156.818 25.443,160.085 C36.531,162.758 41.976,165.629 41.976,173.054 C41.976,178.796 37.521,184.637 27.126,184.637 Z" id="Path"></path>
                <polygon id="Path" points="87.091 191.567 97.288 191.567 97.288 128.504 119.464 128.504 119.464 120.287 64.915 120.287 64.915 128.504 87.091 128.504"></polygon>
                <path d="M145.472,164.54 L145.472,120.287 L135.374,120.287 L135.374,164.54 C135.374,180.281 143.393,192.854 162.698,192.854 C181.607,192.854 190.022,180.281 190.022,164.54 L190.022,120.287 L179.924,120.287 L179.924,164.54 C179.924,175.232 175.172,184.736 162.698,184.736 C150.719,184.736 145.472,175.232 145.472,164.54 Z" id="Path"></path>
                <polygon id="Path" points="286.588 120.287 286.588 191.567 296.785 191.567 296.785 120.287"></polygon>
                <polygon id="Path" points="434.076 182.854 449.916 123.355 450.114 123.355 465.261 182.854 477.24 182.854 497.535 111.574 486.744 111.574 471.399 171.469 471.201 171.469 456.153 111.574 444.075 111.574 428.532 171.568 428.235 171.568 412.791 111.574 402 111.574 422.196 182.854"></polygon>
                <polygon id="Path" points="702.243 120.287 682.542 180.479 682.245 180.479 662.742 120.287 646.704 120.287 646.704 191.567 656.307 191.567 656.307 130.583 656.703 130.583 676.998 191.567 687.591 191.567 708.282 130.583 708.678 130.583 708.678 191.567 718.281 191.567 718.281 120.287"></polygon>
                <polygon id="Path" points="739.933 120.287 739.933 191.567 750.13 191.567 750.13 120.287"></polygon>
                <polygon id="Path" points="828.014 120.287 818.411 120.287 818.411 176.42 818.213 176.42 782.672 120.287 771.782 120.287 771.782 191.567 781.385 191.567 781.385 134.84 781.88 134.84 817.718 191.567 828.014 191.567"></polygon>
                <path d="M911.739,160.976 L911.739,155.531 L875.208,155.531 L875.208,163.649 L901.443,163.649 L901.443,164.045 C901.443,175.628 894.315,184.637 879.465,184.637 C866.001,184.637 856.497,171.371 856.497,156.026 C856.497,140.087 865.902,127.217 880.356,127.217 C892.632,127.217 897.978,134.939 900.255,142.364 L910.155,140.582 C906.492,128.108 896.394,119 880.356,119 C860.655,119 846.3,135.236 846.3,156.026 C846.3,176.024 859.962,192.854 879.366,192.854 C899.859,192.854 911.739,179.687 911.739,160.976 Z" id="Path"></path>
                <polygon id="Path" points="1188.2 191.567 1198.397 191.567 1198.397 128.504 1220.573 128.504 1220.573 120.287 1166.024 120.287 1166.024 128.504 1188.2 128.504"></polygon>
                <polygon id="Path" points="1259.253 155.036 1241.631 120.287 1230.147 120.287 1254.006 164.045 1254.006 191.567 1264.203 191.567 1264.203 164.045 1287.864 120.287 1276.677 120.287"></polygon>
                <polygon id="Path" points="159.5735 239.287 149.9705 239.287 149.9705 295.42 149.7725 295.42 114.2315 239.287 103.3415 239.287 103.3415 310.567 112.9445 310.567 112.9445 253.84 113.4395 253.84 149.2775 310.567 159.5735 310.567"></polygon>
                <polygon id="Path" points="288.6115 299.776 267.4255 239.287 256.6345 239.287 282.7705 310.567 294.2545 310.567 320.3905 239.287 309.7975 239.287 288.9085 299.776"></polygon>
                <polygon id="Path" points="376.1975 274.779 346.2995 274.779 346.2995 252.504 381.0485 252.504 381.0485 244.287 336.1025 244.287 336.1025 315.567 382.0385 315.567 382.0385 307.152 346.2995 307.152 346.2995 282.996 376.1975 282.996"></polygon>
                <polygon id="Path" points="454.3785 239.287 434.6775 299.479 434.3805 299.479 414.8775 239.287 398.8395 239.287 398.8395 310.567 408.4425 310.567 408.4425 249.583 408.8385 249.583 429.1335 310.567 439.7265 310.567 460.4175 249.583 460.8135 249.583 460.8135 310.567 470.4165 310.567 470.4165 239.287"></polygon>
                <polygon id="Path" points="601.1375 269.779 571.2395 269.779 571.2395 247.504 605.9885 247.504 605.9885 239.287 561.0425 239.287 561.0425 310.567 606.9785 310.567 606.9785 302.152 571.2395 302.152 571.2395 277.996 601.1375 277.996"></polygon>
                <path d="M740.7395,253.543 L740.7395,310.567 L749.9465,310.567 L749.9465,241.465 L740.8385,241.465 C735.8885,250.078 727.2755,254.929 721.4345,256.414 L721.4345,265.819 C727.4735,264.73 736.1855,260.077 740.4425,253.543 L740.7395,253.543 Z" id="Path"></path>
                <path d="M813.5745,254.187 L813.5745,246.465 L768.1335,246.465 L768.1335,254.583 L803.8725,254.583 C794.2695,265.671 781.5975,290.223 781.3005,315.567 L790.8045,315.567 C791.0025,295.173 798.5265,272.304 813.5745,254.187 Z" id="Path"></path>
                <polygon id="Path" points="864.2045 280.372 864.2045 288.985 926.6735 288.985 926.6735 280.372"></polygon>
                <path d="M53.0785,388.581 L54.8605,368.583 L85.7485,368.583 L85.7485,360.465 L47.5345,360.465 L44.2675,398.58 L53.2765,398.58 C56.0485,392.838 60.5035,388.878 66.4435,388.878 C73.9675,388.878 79.4125,394.917 79.4125,405.906 C79.4125,415.311 74.3635,422.934 65.4535,422.934 C57.8305,422.934 53.6725,416.499 52.4845,409.668 L42.9805,409.668 C44.0695,418.182 49.6135,430.854 65.9485,430.854 C79.4125,430.854 88.8175,418.875 88.8175,405.807 C88.8175,390.66 79.6105,381.057 67.7305,381.057 C61.4935,381.057 56.0485,384.918 53.3755,388.581 L53.0785,388.581 Z" id="Path"></path>
                <path d="M105.5195,429.567 L150.6635,429.567 L150.6635,421.35 L115.5185,421.35 C116.5085,412.539 124.0325,407.985 130.5665,404.52 C142.1495,398.382 150.5645,391.848 150.5645,379.77 C150.5645,366.603 141.3575,359.475 128.3885,359.475 C114.4295,359.475 105.7175,368.682 105.5195,381.453 L114.9245,381.453 C115.0235,373.533 119.0825,367.395 128.3885,367.395 C136.2095,367.395 141.1595,372.048 141.1595,379.77 C141.1595,387.987 134.4275,392.838 126.2105,397.491 C114.2315,404.223 105.5195,412.044 105.5195,425.211 L105.5195,429.567 Z" id="Path"></path>
                <path d="M177.2655,388.581 L179.0475,368.583 L209.9355,368.583 L209.9355,360.465 L171.7215,360.465 L168.4545,398.58 L177.4635,398.58 C180.2355,392.838 184.6905,388.878 190.6305,388.878 C198.1545,388.878 203.5995,394.917 203.5995,405.906 C203.5995,415.311 198.5505,422.934 189.6405,422.934 C182.0175,422.934 177.8595,416.499 176.6715,409.668 L167.1675,409.668 C168.2565,418.182 173.8005,430.854 190.1355,430.854 C203.5995,430.854 213.0045,418.875 213.0045,405.807 C213.0045,390.66 203.7975,381.057 191.9175,381.057 C185.6805,381.057 180.2355,384.918 177.5625,388.581 L177.2655,388.581 Z" id="Path"></path>
                <path d="M295.5125,357 C275.8115,357 261.9515,372.741 261.9515,394.224 C261.9515,415.311 275.8115,430.854 295.5125,430.854 C311.9465,430.854 321.6485,420.36 325.7075,409.173 L316.2035,407.589 C313.2335,414.618 306.6005,422.637 295.5125,422.637 C280.7615,422.637 272.1485,409.569 272.1485,394.224 C272.1485,378.285 280.7615,365.217 295.5125,365.217 C306.6005,365.217 312.7385,372.642 315.6095,380.265 L325.3115,378.681 C322.2425,367.791 312.2435,357 295.5125,357 Z" id="Path"></path>
                <polygon id="Path" points="477.0905 596.287 477.0905 667.567 487.2875 667.567 487.2875 596.287"></polygon>
                <path d="M436.9255,407.54 L436.9255,363.287 L426.8275,363.287 L426.8275,407.54 C426.8275,423.281 434.8465,435.854 454.1515,435.854 C473.0605,435.854 481.4755,423.281 481.4755,407.54 L481.4755,363.287 L471.3775,363.287 L471.3775,407.54 C471.3775,418.232 466.6255,427.736 454.1515,427.736 C442.1725,427.736 436.9255,418.232 436.9255,407.54 Z" id="Path"></path>
                <polygon id="Path" points="589.4265 429.567 599.6235 429.567 599.6235 366.504 621.7995 366.504 621.7995 358.287 567.2505 358.287 567.2505 366.504 589.4265 366.504"></polygon>
                <path d="M694.8035,422.637 C684.9035,422.637 679.4585,416.697 677.4785,407.688 L667.6775,409.272 C669.6575,422.34 679.8545,430.854 693.9125,430.854 C709.8515,430.854 719.7515,421.647 719.7515,410.361 C719.7515,398.184 712.1285,392.739 696.7835,388.977 C686.1905,386.304 680.2505,383.829 680.2505,376.305 C680.2505,369.87 685.3985,365.217 694.1105,365.217 C703.3175,365.217 707.9705,370.365 709.4555,377.196 L718.8605,375.612 C716.1875,364.425 707.9705,357 694.1105,357 C680.0525,357 670.0535,366.009 670.0535,376.503 C670.0535,389.274 679.7555,394.818 693.1205,398.085 C704.2085,400.758 709.6535,403.629 709.6535,411.054 C709.6535,416.796 705.1985,422.637 694.8035,422.637 Z" id="Path"></path>
                <polygon id="Path" points="754.7685 429.567 764.9655 429.567 764.9655 366.504 787.1415 366.504 787.1415 358.287 732.5925 358.287 732.5925 366.504 754.7685 366.504"></polygon>
                <polygon id="Path" points="913.0115 388.779 883.1135 388.779 883.1135 366.504 917.8625 366.504 917.8625 358.287 872.9165 358.287 872.9165 429.567 918.8525 429.567 918.8525 421.152 883.1135 421.152 883.1135 396.996 913.0115 396.996"></polygon>
                <polygon id="Path" points="975.7485 388.779 945.8505 388.779 945.8505 366.504 980.5995 366.504 980.5995 358.287 935.6535 358.287 935.6535 429.567 981.5895 429.567 981.5895 421.152 945.8505 421.152 945.8505 396.996 975.7485 396.996"></polygon>
                <polygon id="Path" points="1014.8245 429.567 1025.0215 429.567 1025.0215 366.504 1047.1975 366.504 1047.1975 358.287 992.6485 358.287 992.6485 366.504 1014.8245 366.504"></polygon>
                <path d="M1053.3065,441.15 L1056.8705,444.021 C1061.1275,439.17 1064.7905,433.23 1064.7905,425.409 L1064.7905,417.093 L1052.8115,417.093 L1052.8115,429.567 L1056.2765,429.567 C1062.1175,429.567 1055.9795,438.378 1053.3065,441.15 Z" id="Path"></path>
                <path d="M1150.3675,352 C1130.6665,352 1116.8065,367.741 1116.8065,389.224 C1116.8065,410.311 1130.6665,425.854 1150.3675,425.854 C1166.8015,425.854 1176.5035,415.36 1180.5625,404.173 L1171.0585,402.589 C1168.0885,409.618 1161.4555,417.637 1150.3675,417.637 C1135.6165,417.637 1127.0035,404.569 1127.0035,389.224 C1127.0035,373.285 1135.6165,360.217 1150.3675,360.217 C1161.4555,360.217 1167.5935,367.642 1170.4645,375.265 L1180.1665,373.681 C1177.0975,362.791 1167.0985,352 1150.3675,352 Z" id="Path"></path>
                <path d="M1197.7595,429.567 L1242.9035,429.567 L1242.9035,421.35 L1207.7585,421.35 C1208.7485,412.539 1216.2725,407.985 1222.8065,404.52 C1234.3895,398.382 1242.8045,391.848 1242.8045,379.77 C1242.8045,366.603 1233.5975,359.475 1220.6285,359.475 C1206.6695,359.475 1197.9575,368.682 1197.7595,381.453 L1207.1645,381.453 C1207.2635,373.533 1211.3225,367.395 1220.6285,367.395 C1228.4495,367.395 1233.3995,372.048 1233.3995,379.77 C1233.3995,387.987 1226.6675,392.838 1218.4505,397.491 C1206.4715,404.223 1197.7595,412.044 1197.7595,425.211 L1197.7595,429.567 Z" id="Path"></path>
                <path d="M301.6505,592.525 L298.0865,589.654 C293.8295,594.505 290.1665,600.445 290.1665,608.266 L290.1665,616.582 L302.1455,616.582 L302.1455,604.108 L298.6805,604.108 C292.8395,604.108 298.9775,595.297 301.6505,592.525 Z" id="Path"></path>
                <path d="M318.6785,592.525 L315.1145,589.654 C310.8575,594.505 307.1945,600.445 307.1945,608.266 L307.1945,616.582 L319.1735,616.582 L319.1735,604.108 L315.7085,604.108 C309.8675,604.108 316.0055,595.297 318.6785,592.525 Z" id="Path"></path>
                <polygon id="Path" points="565.1715 596.287 555.5685 596.287 555.5685 652.42 555.3705 652.42 519.8295 596.287 508.9395 596.287 508.9395 667.567 518.5425 667.567 518.5425 610.84 519.0375 610.84 554.8755 667.567 565.1715 667.567"></polygon>
                <path d="M648.8965,636.976 L648.8965,631.531 L612.3655,631.531 L612.3655,639.649 L638.6005,639.649 L638.6005,640.045 C638.6005,651.628 631.4725,660.637 616.6225,660.637 C603.1585,660.637 593.6545,647.371 593.6545,632.026 C593.6545,616.087 603.0595,603.217 617.5135,603.217 C629.7895,603.217 635.1355,610.939 637.4125,618.364 L647.3125,616.582 C643.6495,604.108 633.5515,595 617.5135,595 C597.8125,595 583.4575,611.236 583.4575,632.026 C583.4575,652.024 597.1195,668.854 616.5235,668.854 C637.0165,668.854 648.8965,655.687 648.8965,636.976 Z" id="Path"></path>
                <polygon id="Path" points="809.8825 626.779 779.9845 626.779 779.9845 604.504 814.7335 604.504 814.7335 596.287 769.7875 596.287 769.7875 667.567 815.7235 667.567 815.7235 659.152 779.9845 659.152 779.9845 634.996 809.8825 634.996"></polygon>
                <polygon id="Path" points="872.6195 626.779 842.7215 626.779 842.7215 604.504 877.4705 604.504 877.4705 596.287 832.5245 596.287 832.5245 667.567 878.4605 667.567 878.4605 659.152 842.7215 659.152 842.7215 634.996 872.6195 634.996"></polygon>
                <path d="M963.8395,621.334 L967.4035,624.205 C971.6605,619.354 975.3235,613.414 975.3235,605.593 L975.3235,597.277 L963.3445,597.277 L963.3445,609.751 L966.8095,609.751 C972.6505,609.751 966.5125,618.562 963.8395,621.334 Z" id="Path"></path>
                <path d="M981.9565,621.334 L985.5205,624.205 C989.7775,619.354 993.4405,613.414 993.4405,605.593 L993.4405,597.277 L981.4615,597.277 L981.4615,609.751 L984.9265,609.751 C990.7675,609.751 984.6295,618.562 981.9565,621.334 Z" id="Path"></path>
            </g>
        </g>
    </g>
</svg>